 <svg width="353" height="76" viewBox="0 0 353 76" fill="none" xmlns="http://www.w3.org/2000/svg">
 <g id="logo-v">
<rect width="21.7078" height="63.278" rx="10.8539" transform="matrix(0.919295 0.393569 -0.452841 0.891592 48.0441 11)" fill="#000" fill-opacity="0.73"/>
<rect width="21.7078" height="63.278" rx="10.8539" transform="matrix(0.919295 -0.393569 0.452841 0.891592 0 19.5819)" fill="#000" fill-opacity="0.51"/>
</g>                                                                                                                                         
<g id="logo-text">
<path d="M70.6 21.104C70.6 19.504 71.208 18.256 72.424 17.36C73.672 16.432 75.416 15.968 77.656 15.968V45.296C77.656 46.928 77.032 48.192 75.784 49.088C74.568 49.984 72.84 50.432 70.6 50.432V21.104ZM97.474 50.432C92.994 50.432 89.442 49.664 86.818 48.128C84.226 46.592 82.93 44.464 82.93 41.744C82.93 40.56 83.378 39.6 84.274 38.864C85.17 38.128 86.674 37.76 88.786 37.76C88.914 40.096 89.714 41.872 91.186 43.088C92.69 44.272 94.786 44.864 97.474 44.864C99.554 44.864 101.186 44.512 102.37 43.808C103.554 43.072 104.146 42.064 104.146 40.784C104.146 39.92 103.922 39.216 103.474 38.672C103.026 38.128 102.242 37.632 101.122 37.184C100.034 36.736 98.434 36.272 96.322 35.792C93.122 35.056 90.61 34.224 88.786 33.296C86.962 32.368 85.634 31.264 84.802 29.984C84.002 28.704 83.602 27.104 83.602 25.184C83.602 23.36 84.146 21.76 85.234 20.384C86.354 18.976 87.906 17.888 89.89 17.12C91.874 16.352 94.178 15.968 96.802 15.968C99.298 15.968 101.538 16.304 103.522 16.976C105.506 17.616 107.058 18.528 108.178 19.712C109.298 20.896 109.858 22.256 109.858 23.792C109.858 24.976 109.41 25.92 108.514 26.624C107.65 27.296 106.21 27.664 104.194 27.728C104.034 25.584 103.378 24.016 102.226 23.024C101.074 22.032 99.266 21.536 96.802 21.536C94.786 21.536 93.234 21.856 92.146 22.496C91.058 23.136 90.514 24.064 90.514 25.28C90.514 26.112 90.722 26.8 91.138 27.344C91.554 27.856 92.258 28.32 93.25 28.736C94.274 29.152 95.73 29.568 97.618 29.984C100.914 30.72 103.522 31.568 105.442 32.528C107.394 33.456 108.802 34.576 109.666 35.888C110.562 37.2 111.01 38.816 111.01 40.736C111.01 42.688 110.45 44.4 109.33 45.872C108.242 47.344 106.674 48.48 104.626 49.28C102.61 50.048 100.226 50.432 97.474 50.432ZM116.303 21.104C116.303 19.504 116.911 18.256 118.127 17.36C119.375 16.432 121.119 15.968 123.359 15.968V45.296C123.359 46.928 122.735 48.192 121.487 49.088C120.271 49.984 118.543 50.432 116.303 50.432V21.104ZM139.721 22.496H128.153C128.153 18.432 129.993 16.4 133.673 16.4H158.297C158.297 20.464 156.457 22.496 152.777 22.496H146.777V45.344C146.777 47.008 146.169 48.272 144.953 49.136C143.769 50 142.025 50.432 139.721 50.432V22.496ZM186.115 50.432C183.651 50.432 181.411 49.968 179.395 49.04C177.411 48.112 175.859 46.832 174.739 45.2C173.619 43.568 173.059 41.728 173.059 39.68C173.059 38.24 173.667 37.248 174.883 36.704C176.131 36.128 177.891 35.84 180.163 35.84C180.067 36.352 180.019 37.12 180.019 38.144C180.019 40.16 180.531 41.696 181.555 42.752C182.579 43.776 184.099 44.288 186.115 44.288C188.099 44.288 189.603 43.712 190.627 42.56C191.683 41.408 192.211 39.744 192.211 37.568V22.496H187.651C186.051 22.496 184.851 22 184.051 21.008C183.283 19.984 182.899 18.448 182.899 16.4H195.811C196.771 16.4 197.587 16.72 198.259 17.36C198.931 17.968 199.267 18.72 199.267 19.616V37.568C199.267 40.032 198.691 42.24 197.539 44.192C196.419 46.144 194.851 47.68 192.835 48.8C190.851 49.888 188.611 50.432 186.115 50.432ZM205.272 21.104C205.272 19.504 205.88 18.256 207.096 17.36C208.344 16.432 210.088 15.968 212.328 15.968V45.296C212.328 46.928 211.704 48.192 210.456 49.088C209.24 49.984 207.512 50.432 205.272 50.432V21.104ZM230.178 50.432C227.714 50.432 225.474 49.968 223.458 49.04C221.474 48.112 219.922 46.832 218.802 45.2C217.682 43.568 217.122 41.728 217.122 39.68C217.122 38.24 217.73 37.248 218.946 36.704C220.194 36.128 221.954 35.84 224.226 35.84C224.13 36.352 224.082 37.12 224.082 38.144C224.082 40.16 224.594 41.696 225.618 42.752C226.642 43.776 228.162 44.288 230.178 44.288C232.162 44.288 233.666 43.712 234.69 42.56C235.746 41.408 236.274 39.744 236.274 37.568V22.496H231.714C230.114 22.496 228.914 22 228.114 21.008C227.346 19.984 226.962 18.448 226.962 16.4H239.874C240.834 16.4 241.65 16.72 242.322 17.36C242.994 17.968 243.33 18.72 243.33 19.616V37.568C243.33 40.032 242.754 42.24 241.602 44.192C240.482 46.144 238.914 47.68 236.898 48.8C234.914 49.888 232.674 50.432 230.178 50.432ZM248.374 19.616C248.374 18.72 248.71 17.968 249.382 17.36C250.086 16.72 250.934 16.4 251.926 16.4H273.382C273.382 18.512 273.03 20.048 272.326 21.008C271.622 21.968 270.486 22.448 268.918 22.448H255.43V30.032H268.006C268.006 32.144 267.654 33.68 266.95 34.64C266.246 35.6 265.11 36.08 263.542 36.08H255.43V43.952H269.926C271.462 43.952 272.582 44.432 273.286 45.392C273.99 46.352 274.342 47.888 274.342 50H251.926C250.934 50 250.086 49.696 249.382 49.088C248.71 48.48 248.374 47.712 248.374 46.784V19.616ZM282.352 50C281.328 50 280.448 49.632 279.712 48.896C279.008 48.16 278.656 47.28 278.656 46.256V21.056C278.656 19.328 279.232 18.048 280.384 17.216C281.536 16.384 283.312 15.968 285.712 15.968V43.904H298.096C299.696 43.904 300.912 44.432 301.744 45.488C302.608 46.512 303.04 48.016 303.04 50H282.352Z" fill="#000"/>
<path d="M74.04 69.024L72.804 72H72.192L75.804 63.36H76.14L79.764 72H79.116L77.88 69.024H74.04ZM75.936 64.32C75.928 64.328 75.912 64.376 75.888 64.464C75.776 64.808 75.668 65.1 75.564 65.34L74.244 68.532H77.676L76.356 65.352C76.076 64.744 75.936 64.4 75.936 64.32ZM81.541 72V63.42H82.117V72H81.541ZM91.1875 63.924H88.2835V63.42H94.6675V63.924H91.7635V72H91.1875V63.924ZM96.0923 72V64.248C96.7803 64.192 97.3643 64.164 97.8443 64.164C98.5803 64.164 99.1883 64.356 99.6683 64.74C100.148 65.116 100.388 65.656 100.388 66.36C100.388 66.832 100.252 67.268 99.9803 67.668C99.7083 68.068 99.4003 68.392 99.0563 68.64C100.008 69.904 100.596 70.66 100.82 70.908C101.276 71.38 101.772 71.648 102.308 71.712L102.296 72.084C101.848 72.076 101.484 72.012 101.204 71.892C100.924 71.764 100.644 71.552 100.364 71.256C100.092 70.96 99.4883 70.164 98.5523 68.868C97.9043 68.868 97.2683 68.848 96.6443 68.808V72H96.0923ZM98.2523 68.412C98.5643 68.412 98.9003 68.204 99.2603 67.788C99.6203 67.372 99.8003 66.888 99.8003 66.336C99.8003 65.784 99.6123 65.364 99.2363 65.076C98.8603 64.788 98.3723 64.644 97.7723 64.644C97.4523 64.644 97.0763 64.66 96.6443 64.692V68.352C97.2203 68.392 97.7563 68.412 98.2523 68.412ZM103.393 72V64.212H103.945V72H103.393ZM106.827 72V64.26C107.427 64.196 108.059 64.164 108.723 64.164C109.395 64.164 109.963 64.344 110.427 64.704C110.891 65.056 111.123 65.592 111.123 66.312C111.123 67.032 110.807 67.624 110.175 68.088C109.543 68.544 108.795 68.772 107.931 68.772C107.891 68.772 107.847 68.772 107.799 68.772V68.388C107.831 68.388 107.859 68.388 107.883 68.388C108.595 68.388 109.215 68.2 109.743 67.824C110.271 67.448 110.535 66.96 110.535 66.36C110.535 65.76 110.347 65.324 109.971 65.052C109.603 64.78 109.115 64.644 108.507 64.644C108.187 64.644 107.811 64.66 107.379 64.692V72H106.827ZM117.635 72V63.468C118.299 63.404 118.943 63.372 119.567 63.372C120.407 63.372 121.079 63.568 121.583 63.96C122.095 64.352 122.351 64.944 122.351 65.736C122.351 66.52 122.003 67.168 121.307 67.68C120.619 68.184 119.795 68.436 118.835 68.436C118.795 68.436 118.751 68.436 118.703 68.436V68.04C118.735 68.04 118.763 68.04 118.787 68.04C119.579 68.04 120.267 67.832 120.851 67.416C121.435 67 121.727 66.46 121.727 65.796C121.727 65.124 121.523 64.64 121.115 64.344C120.707 64.04 120.159 63.888 119.471 63.888C119.111 63.888 118.691 63.904 118.211 63.936V72H117.635ZM124.463 72V64.212H125.015V71.496H128.591V72H124.463ZM130.613 69.3L129.497 72H128.933L132.197 64.164H132.521L135.809 72H135.197L134.069 69.3H130.613ZM132.329 65.052C132.209 65.412 132.101 65.712 132.005 65.952L130.805 68.832H133.877L132.689 65.964C132.505 65.516 132.385 65.212 132.329 65.052ZM137.389 72V64.164H137.653L142.765 70.044C142.949 70.252 143.117 70.46 143.269 70.668C143.429 70.868 143.513 70.972 143.521 70.98C143.505 70.788 143.497 70.412 143.497 69.852V64.212H144.049V72.048H143.785L138.577 66.072L137.917 65.268C137.933 65.428 137.941 65.804 137.941 66.396V72H137.389ZM146.928 72V64.164H147.192L152.304 70.044C152.488 70.252 152.656 70.46 152.808 70.668C152.968 70.868 153.052 70.972 153.06 70.98C153.044 70.788 153.036 70.412 153.036 69.852V64.212H153.588V72.048H153.324L148.116 66.072L147.456 65.268C147.472 65.428 147.48 65.804 147.48 66.396V72H146.928ZM156.467 72V64.212H160.103V64.692H157.019V67.524H159.803V67.992H157.019V71.496H160.223V72H156.467ZM162.432 72V64.248C163.12 64.192 163.704 64.164 164.184 64.164C164.92 64.164 165.528 64.356 166.008 64.74C166.488 65.116 166.728 65.656 166.728 66.36C166.728 66.832 166.592 67.268 166.32 67.668C166.048 68.068 165.74 68.392 165.396 68.64C166.348 69.904 166.936 70.66 167.16 70.908C167.616 71.38 168.112 71.648 168.648 71.712L168.636 72.084C168.188 72.076 167.824 72.012 167.544 71.892C167.264 71.764 166.984 71.552 166.704 71.256C166.432 70.96 165.828 70.164 164.892 68.868C164.244 68.868 163.608 68.848 162.984 68.808V72H162.432ZM164.592 68.412C164.904 68.412 165.24 68.204 165.6 67.788C165.96 67.372 166.14 66.888 166.14 66.336C166.14 65.784 165.952 65.364 165.576 65.076C165.2 64.788 164.712 64.644 164.112 64.644C163.792 64.644 163.416 64.66 162.984 64.692V68.352C163.56 68.392 164.096 68.412 164.592 68.412Z" fill="#000"/>
</g>                                                                                                                                                                                                                                                                                                                                                                                                                                                                                                                                                                                                                                                                                                                                                                                                                                                                                                                                                 
</svg> 
